<?xml version="1.0" encoding="iso-8859-1"?>
<!-- Generator: Adobe Illustrator 19.0.0, SVG Export Plug-In . SVG Version: 6.00 Build 0)  -->
<svg version="1.1" id="Layer_1" xmlns="http://www.w3.org/2000/svg" xmlns:xlink="http://www.w3.org/1999/xlink" x="0px" y="0px"
	 viewBox="0 0 420 420" style="enable-background:new 0 0 420 420;" xml:space="preserve">
<g id="XMLID_536_">
	<polyline id="XMLID_539_" style="fill:#D8D8DA;" points="310,105 290,25 130,25 110,105 	"/>
	<polygon id="XMLID_540_" style="fill:#C5C5CA;" points="130,25 110,105 160,105 160,25 	"/>
	<polygon id="XMLID_541_" style="fill:#EDEDED;" points="290,25 310,105 260,105 260,25 	"/>
	<path id="XMLID_542_" style="fill:#EDEDED;" d="M420,355c0,22.091-17.909,40-40,40H40c-22.091,0-40-17.909-40-40V135
		c0-22.091,17.909-40,40-40h340c22.091,0,40,17.909,40,40V355z"/>
	<g id="XMLID_547_">
		<g id="XMLID_949_">
			<g id="XMLID_950_">
				<path id="XMLID_951_" style="fill:#D8D8DA;" d="M40,95c-22.091,0-40,17.909-40,40v220c0,22.091,17.909,40,40,40V95z"/>
			</g>
		</g>
	</g>
	<g id="XMLID_553_">
		<g id="XMLID_948_">
			<g id="XMLID_952_">
				<path id="XMLID_953_" style="fill:#F8F8F9;" d="M380,395c22.091,0,40-17.909,40-40V135c0-22.091-17.909-40-40-40V395z"/>
			</g>
		</g>
	</g>
	<rect id="XMLID_555_" y="175" style="fill:#58575D;" width="420" height="140"/>
	<circle id="XMLID_557_" style="fill:#98C8ED;" cx="210" cy="245" r="80"/>
	<g id="XMLID_561_">
		<g id="XMLID_559_">
			<rect id="XMLID_560_" x="340" y="240" style="fill:#F3F3F2;" width="40" height="30"/>
		</g>
	</g>
	<path id="XMLID_563_" style="fill:#D1E3FA;" d="M230.842,167.76l-98.082,98.082c7.407,27.515,29.11,49.159,56.663,56.474
		l97.892-97.893C280.001,196.87,258.356,175.167,230.842,167.76z"/>
	<rect id="XMLID_564_" y="175" style="fill:#3F3D43;" width="40" height="140"/>
	<rect id="XMLID_565_" x="380" y="175" style="fill:#787681;" width="40" height="140"/>
	<circle id="XMLID_568_" style="fill:#FFFFFF;" cx="233.5" cy="223.167" r="30"/>
</g>
<g>
</g>
<g>
</g>
<g>
</g>
<g>
</g>
<g>
</g>
<g>
</g>
<g>
</g>
<g>
</g>
<g>
</g>
<g>
</g>
<g>
</g>
<g>
</g>
<g>
</g>
<g>
</g>
<g>
</g>
</svg>
